<svg width="15" height="15" viewBox="0 0 15 15" fill="none" xmlns="http://www.w3.org/2000/svg">
<path d="M11.1016 9.19978C11.1016 9.85685 11.2883 10.1189 11.7766 10.1189C12.8648 10.1189 13.5578 8.73044 13.5578 6.42131C13.5578 2.8919 10.9891 1.20228 7.78203 1.20228C4.48281 1.20228 1.48203 3.41755 1.48203 7.60404C1.48203 11.6028 4.10703 13.7805 8.13828 13.7805C9.50703 13.7805 10.4258 13.6303 11.8313 13.161L12.1328 14.418C10.7453 14.8694 9.2625 15 8.11953 15C2.83203 15 0 12.0901 0 7.60325C0 3.07885 3.28203 0 7.80078 0C12.507 0 15 2.81602 15 6.27034C15 9.199 14.082 11.433 11.1945 11.433C9.88125 11.433 9.01953 10.9074 8.90703 9.74265C8.56953 11.038 7.66953 11.433 6.45 11.433C4.81875 11.433 3.45 10.1744 3.45 7.6408C3.45 5.08761 4.65078 3.51064 6.80703 3.51064C7.95078 3.51064 8.66328 3.9612 8.98047 4.67459L9.525 3.6796H11.1V9.19978H11.1016ZM8.79609 6.72168C8.79609 5.68992 8.02656 5.25735 7.38906 5.25735C6.69531 5.25735 5.92734 5.81977 5.92734 7.47262C5.92734 8.78676 6.50859 9.51893 7.38906 9.51893C8.00781 9.51893 8.79609 9.12469 8.79609 8.03583V6.72168Z" fill="white"/>
</svg>
