<svg width="17" height="17" viewBox="0 0 17 17" fill="none" xmlns="http://www.w3.org/2000/svg">
<path d="M15.2728 11.0447C14.4146 10.9388 13.5624 10.7886 12.7197 10.5947C12.5139 10.5259 12.2939 10.5114 12.0809 10.5526C11.8679 10.5938 11.6692 10.6893 11.5039 10.8298C11.2891 11.0488 10.669 11.661 10.0247 12.2935C7.71596 11.1581 5.84884 9.28868 4.71568 6.97806C5.34384 6.3334 5.93148 5.71711 6.17058 5.50223C6.31108 5.33686 6.40654 5.13801 6.44772 4.92492C6.4889 4.71183 6.4744 4.49172 6.40564 4.28588C6.2116 3.44143 6.06145 2.58749 5.95579 1.72749C5.94447 1.61797 5.91098 1.51191 5.85736 1.41577C5.80373 1.31962 5.7311 1.23541 5.64389 1.16827C5.55667 1.10112 5.45671 1.05244 5.35008 1.02521C5.24345 0.997969 5.1324 0.99274 5.02368 1.00984H1.57082C1.4283 1.02271 1.29488 1.08548 1.19406 1.18708C1.09324 1.28869 1.03148 1.42262 1.01966 1.56531C0.796764 4.68322 2.53535 8.02007 2.88793 8.66068V8.68501L2.93657 8.77826C4.1987 10.9683 6.016 12.7864 8.20502 14.0491V14.0491L8.38333 14.1505C9.19386 14.5803 12.4157 16.2021 15.4268 15.9791C15.5709 15.9691 15.7067 15.9081 15.8099 15.807C15.9131 15.706 15.977 15.5715 15.9902 15.4276V11.9773C16.0073 11.8685 16.002 11.7574 15.9748 11.6507C15.9476 11.544 15.8989 11.444 15.8318 11.3568C15.7647 11.2695 15.6805 11.1969 15.5844 11.1432C15.4883 11.0896 15.3823 11.0561 15.2728 11.0447Z" stroke="white" stroke-linecap="round" stroke-linejoin="round"/>
</svg>
