<svg width="17" height="17" viewBox="0 0 17 17" fill="none" xmlns="http://www.w3.org/2000/svg">
<path d="M8.5 1C6.51088 1 4.60322 1.60053 3.1967 2.66949C1.79018 3.73845 1 5.18827 1 6.7V7.11538C1.30364 10.2385 4.71457 12.75 8.5 16C12.4524 12.6077 16 10.0385 16 6.7C16 5.18827 15.2098 3.73845 13.8033 2.66949C12.3968 1.60053 10.4891 1 8.5 1ZM8.5 3.96154C9.21387 3.96154 9.9117 4.12247 10.5052 4.42397C11.0987 4.72547 11.5612 5.15399 11.8341 5.6553C12.1071 6.15662 12.1782 6.7082 12.0386 7.24026C11.899 7.77232 11.5548 8.26095 11.0497 8.64431C10.5445 9.02768 9.90111 9.28855 9.20084 9.39393C8.50056 9.49931 7.77489 9.44445 7.11565 9.2363C6.45641 9.02815 5.89322 8.67607 5.49735 8.22459C5.10147 7.77312 4.8907 7.24254 4.8917 6.7C4.89304 5.97336 5.27379 5.27683 5.95033 4.76338C6.62688 4.24993 7.5439 3.96154 8.5 3.96154Z" stroke="white" stroke-linecap="round" stroke-linejoin="round"/>
</svg>
