<svg width="15" height="19" viewBox="0 0 15 19" fill="none" xmlns="http://www.w3.org/2000/svg">
<path d="M7.96875 0C3.96094 0 0 2.60385 0 6.81797C0 9.49795 1.54688 11.0207 2.48438 11.0207C2.87109 11.0207 3.09375 9.96999 3.09375 9.67306C3.09375 9.31903 2.16797 8.56528 2.16797 7.09206C2.16797 4.03139 4.55859 1.86152 7.65234 1.86152C10.3125 1.86152 12.2812 3.33475 12.2812 6.04138C12.2812 8.06279 11.4492 11.8544 8.75391 11.8544C7.78125 11.8544 6.94922 11.1691 6.94922 10.187C6.94922 8.74801 7.98047 7.35472 7.98047 5.87008C7.98047 3.34998 4.3125 3.80679 4.3125 6.85223C4.3125 7.49177 4.39453 8.19983 4.6875 8.78227C4.14844 11.0435 3.04688 14.4125 3.04688 16.7423C3.04688 17.4618 3.15234 18.1698 3.22266 18.8893C3.35547 19.034 3.28906 19.0187 3.49219 18.9464C5.46094 16.3197 5.39062 15.8058 6.28125 12.3683C6.76172 13.2591 8.00391 13.7387 8.98828 13.7387C13.1367 13.7387 15 9.79869 15 6.24695C15 2.4668 11.6484 0 7.96875 0Z" fill="#FF555A"/>
</svg>
