<svg width="20" height="20" viewBox="0 0 20 20" fill="none" xmlns="http://www.w3.org/2000/svg">
<path fill-rule="evenodd" clip-rule="evenodd" d="M5.87727 0.0576561C6.94364 0.0104829 7.28364 0 10 0C12.7164 0 13.0564 0.0113565 14.1218 0.0576561C15.1873 0.103956 15.9145 0.267315 16.5509 0.504054C17.2173 0.746035 17.8218 1.12429 18.3218 1.6135C18.8309 2.09309 19.2236 2.67315 19.4745 3.31435C19.7218 3.92586 19.8909 4.62472 19.94 5.6468C19.9891 6.67326 20 6.99998 20 9.60935C20 12.2196 19.9882 12.5463 19.94 13.571C19.8918 14.5931 19.7218 15.292 19.4745 15.9035C19.2236 16.5448 18.8303 17.1258 18.3218 17.6061C17.8218 18.0953 17.2173 18.4727 16.5509 18.7138C15.9145 18.9514 15.1873 19.1139 14.1236 19.161C13.0564 19.2082 12.7164 19.2187 10 19.2187C7.28364 19.2187 6.94364 19.2073 5.87727 19.161C4.81364 19.1147 4.08636 18.9514 3.45 18.7138C2.78265 18.4726 2.17802 18.0946 1.67818 17.6061C1.16944 17.1262 0.775741 16.5455 0.524545 15.9044C0.278182 15.2928 0.109091 14.594 0.06 13.5719C0.0109091 12.5454 0 12.2187 0 9.60935C0 6.9991 0.0118182 6.67238 0.06 5.64855C0.108182 4.62472 0.278182 3.92586 0.524545 3.31435C0.776112 2.67322 1.17011 2.09249 1.67909 1.61262C2.17822 1.12386 2.78225 0.745549 3.44909 0.504054C4.08545 0.267315 4.81364 0.104829 5.87727 0.0576561ZM14.0409 1.78734C12.9864 1.74104 12.67 1.73143 10 1.73143C7.33 1.73143 7.01364 1.74104 5.95909 1.78734C4.98364 1.83014 4.45455 1.98652 4.10182 2.11843C3.63545 2.29314 3.30182 2.50018 2.95182 2.83651C2.62004 3.14667 2.36471 3.52426 2.20455 3.94158C2.06727 4.28053 1.90455 4.78895 1.86 5.7263C1.81182 6.73965 1.80182 7.04365 1.80182 9.60935C1.80182 12.175 1.81182 12.4791 1.86 13.4924C1.90455 14.4298 2.06727 14.9382 2.20455 15.2771C2.36455 15.6938 2.62 16.0721 2.95182 16.3822C3.27455 16.7011 3.66818 16.9465 4.10182 17.1003C4.45455 17.2322 4.98364 17.3886 5.95909 17.4314C7.01364 17.4777 7.32909 17.4873 10 17.4873C12.6709 17.4873 12.9864 17.4777 14.0409 17.4314C15.0164 17.3886 15.5455 17.2322 15.8982 17.1003C16.3645 16.9256 16.6982 16.7185 17.0482 16.3822C17.38 16.0721 17.6355 15.6938 17.7955 15.2771C17.9327 14.9382 18.0955 14.4298 18.14 13.4924C18.1882 12.4791 18.1982 12.175 18.1982 9.60935C18.1982 7.04365 18.1882 6.73965 18.14 5.7263C18.0955 4.78895 17.9327 4.28053 17.7955 3.94158C17.6136 3.49344 17.3982 3.17283 17.0482 2.83651C16.7254 2.51771 16.3325 2.27236 15.8982 2.11843C15.5455 1.98652 15.0164 1.83014 14.0409 1.78734ZM8.72273 12.5717C9.43605 12.857 10.2303 12.8955 10.9699 12.6806C11.7095 12.4657 12.3485 12.0107 12.7778 11.3934C13.2071 10.7761 13.4 10.0347 13.3237 9.29583C13.2473 8.55699 12.9064 7.86654 12.3591 7.34242C12.0102 7.00738 11.5884 6.75084 11.1239 6.59127C10.6595 6.4317 10.164 6.37306 9.67318 6.41959C9.18233 6.46611 8.70832 6.61663 8.28528 6.86032C7.86223 7.104 7.50068 7.43479 7.22664 7.82887C6.9526 8.22295 6.7729 8.67051 6.70047 9.13933C6.62804 9.60816 6.66468 10.0866 6.80776 10.5402C6.95084 10.9937 7.1968 11.4112 7.52793 11.7625C7.85905 12.1138 8.26711 12.3901 8.72273 12.5717ZM6.36545 6.11679C6.84275 5.65814 7.40938 5.29432 8.033 5.0461C8.65661 4.79788 9.325 4.67012 10 4.67012C10.675 4.67012 11.3434 4.79788 11.967 5.0461C12.5906 5.29432 13.1572 5.65814 13.6345 6.11679C14.1118 6.57544 14.4905 7.11994 14.7488 7.71919C15.0071 8.31845 15.14 8.96072 15.14 9.60935C15.14 10.258 15.0071 10.9003 14.7488 11.4995C14.4905 12.0988 14.1118 12.6433 13.6345 13.1019C12.6706 14.0282 11.3632 14.5486 10 14.5486C8.63678 14.5486 7.3294 14.0282 6.36545 13.1019C5.40151 12.1756 4.85998 10.9193 4.85998 9.60935C4.85998 8.29939 5.40151 7.04307 6.36545 6.11679ZM16.28 5.4057C16.3983 5.29848 16.493 5.16955 16.5585 5.02654C16.624 4.88353 16.6589 4.72935 16.6613 4.57312C16.6637 4.41689 16.6334 4.26179 16.5723 4.117C16.5111 3.97222 16.4204 3.84069 16.3054 3.73021C16.1904 3.61973 16.0536 3.53254 15.9029 3.4738C15.7522 3.41506 15.5908 3.38597 15.4282 3.38824C15.2657 3.39052 15.1052 3.42412 14.9564 3.48706C14.8076 3.54999 14.6734 3.64098 14.5618 3.75464C14.3448 3.97568 14.226 4.26928 14.2306 4.57312C14.2352 4.87695 14.3629 5.16711 14.5865 5.38197C14.8101 5.59684 15.1121 5.71951 15.4282 5.72394C15.7444 5.72837 16.05 5.61421 16.28 5.4057Z" fill="white"/>
</svg>
