<svg width="20" height="20" viewBox="0 0 20 20" fill="none" xmlns="http://www.w3.org/2000/svg">
<path fill-rule="evenodd" clip-rule="evenodd" d="M14.5823 11.5168C14.3328 11.3975 13.1095 10.8225 12.8817 10.7425C12.6539 10.6632 12.4881 10.624 12.3215 10.8626C12.1557 11.0996 11.6793 11.6361 11.5344 11.7947C11.3887 11.954 11.2438 11.9733 10.9952 11.8548C10.7465 11.7346 9.94429 11.484 8.99391 10.6736C8.25453 10.0426 7.75464 9.26343 7.60978 9.0248C7.46492 8.78697 7.59387 8.65804 7.71863 8.53953C7.83084 8.43303 7.96732 8.26166 8.09209 8.12313C8.21685 7.98379 8.25788 7.88449 8.34078 7.72514C8.42451 7.56658 8.38265 7.42805 8.31985 7.30873C8.25788 7.18942 7.7605 6.01788 7.55284 5.54142C7.35104 5.07777 7.14589 5.14103 6.99349 5.13302C6.8478 5.12661 6.682 5.12501 6.51621 5.12501C6.35041 5.12501 6.08079 5.18427 5.85303 5.4229C5.62444 5.66073 4.98219 6.23649 4.98219 7.40803C4.98219 8.57877 5.87313 9.71027 5.99789 9.86962C6.12266 10.0282 7.75213 12.4321 10.2482 13.4627C10.8428 13.7078 11.3058 13.8543 11.6667 13.9632C12.2629 14.145 12.8055 14.1194 13.2342 14.0577C13.7115 13.9896 14.7063 13.4819 14.9139 12.9262C15.1208 12.3705 15.1207 11.894 15.0588 11.7947C14.9968 11.6954 14.831 11.6361 14.5815 11.5168H14.5823ZM10.0423 17.445H10.0389C8.55634 17.4452 7.10099 17.0641 5.8254 16.3415L5.52396 16.1701L2.39062 16.9565L3.22712 14.0353L3.03035 13.7358C2.20149 12.474 1.76286 11.0138 1.76512 9.52369C1.76679 5.15945 5.47958 1.6088 10.0456 1.6088C12.2562 1.6088 14.3345 2.4336 15.897 3.92945C16.6676 4.66343 17.2785 5.53626 17.6941 6.49746C18.1098 7.45866 18.322 8.48914 18.3186 9.52929C18.3169 13.8935 14.6041 17.445 10.0423 17.445ZM17.086 2.79315C16.1634 1.90502 15.0657 1.20083 13.8564 0.721374C12.6472 0.241919 11.3505 -0.00326417 10.0414 3.28139e-05C4.55347 3.28139e-05 0.085409 4.27218 0.0837344 9.52289C0.0811914 11.1939 0.539563 12.836 1.4126 14.2835L0 19.2187L5.27861 17.8942C6.73884 18.6551 8.37519 19.0537 10.0381 19.0537H10.0423C15.5302 19.0537 19.9983 14.7816 20 9.53009C20.004 8.2787 19.7485 7.03895 19.2484 5.88257C18.7482 4.7262 18.0132 3.67614 17.086 2.79315Z" fill="white"/>
</svg>
