<svg width="1522" height="694" viewBox="0 0 1522 694" fill="none" xmlns="http://www.w3.org/2000/svg">
<g opacity="0.3">
<path d="M0.261169 692.752H382.943C419.029 518.195 542.561 209.868 748.001 373.011C953.44 536.155 1199.5 355.388 1296.85 244.612L1483.15 692.752H1923.74" stroke="url(#paint0_linear_14_306)"/>
<path d="M0.261169 682.612H382.943C419.029 508.055 542.561 199.728 748.001 362.871C953.44 526.014 1199.5 345.248 1296.85 234.472L1483.15 682.612H1923.74" stroke="url(#paint1_linear_14_306)"/>
<path d="M0.261169 672.471H382.943C419.029 497.915 542.561 189.588 748.001 352.731C953.44 515.874 1199.5 335.108 1296.85 224.332L1483.15 672.471H1923.74" stroke="url(#paint2_linear_14_306)"/>
<path d="M0.261169 662.331H382.943C419.029 487.775 542.561 179.448 748.001 342.591C953.44 505.734 1199.5 324.968 1296.85 214.191L1483.15 662.331H1923.74" stroke="url(#paint3_linear_14_306)"/>
<path d="M0.261169 652.191H382.943C419.029 477.635 542.561 169.308 748.001 332.451C953.44 495.594 1199.5 314.827 1296.85 204.051L1483.15 652.191H1923.74" stroke="url(#paint4_linear_14_306)"/>
<path d="M0.261169 642.051H382.943C419.029 467.495 542.561 159.168 748.001 322.311C953.44 485.454 1199.5 304.687 1296.85 193.911L1483.15 642.051H1923.74" stroke="url(#paint5_linear_14_306)"/>
<path d="M0.261169 631.911H382.943C419.029 457.355 542.561 149.028 748.001 312.171C953.44 475.314 1199.5 294.547 1296.85 183.771L1483.15 631.911H1923.74" stroke="url(#paint6_linear_14_306)"/>
<path d="M0.261169 621.771H382.943C419.029 447.214 542.561 138.887 748.001 302.031C953.44 465.174 1199.5 284.407 1296.85 173.631L1483.15 621.771H1923.74" stroke="url(#paint7_linear_14_306)"/>
<path d="M0.261169 611.631H382.943C419.029 437.074 542.561 128.747 748.001 291.89C953.44 455.033 1199.5 274.267 1296.85 163.491L1483.15 611.631H1923.74" stroke="url(#paint8_linear_14_306)"/>
<path d="M0.261169 601.491H382.943C419.029 426.934 542.561 118.607 748.001 281.75C953.44 444.893 1199.5 264.127 1296.85 153.351L1483.15 601.491H1923.74" stroke="url(#paint9_linear_14_306)"/>
<path d="M0.261169 591.35H382.943C419.029 416.794 542.561 108.467 748.001 271.61C953.44 434.753 1199.5 253.987 1296.85 143.21L1483.15 591.35H1923.74" stroke="url(#paint10_linear_14_306)"/>
<path d="M0.261169 581.21H382.943C419.029 406.654 542.561 98.3268 748.001 261.47C953.44 424.613 1199.5 243.846 1296.85 133.07L1483.15 581.21H1923.74" stroke="url(#paint11_linear_14_306)"/>
<path d="M0.261169 571.07H382.943C419.029 396.514 542.561 88.1867 748.001 251.33C953.44 414.473 1199.5 233.706 1296.85 122.93L1483.15 571.07H1923.74" stroke="url(#paint12_linear_14_306)"/>
<path d="M0.261169 560.93H382.943C419.029 386.374 542.561 78.0466 748.001 241.19C953.44 404.333 1199.5 223.566 1296.85 112.79L1483.15 560.93H1923.74" stroke="url(#paint13_linear_14_306)"/>
<path d="M0.261169 550.79H382.943C419.029 376.233 542.561 67.9064 748.001 231.05C953.44 394.193 1199.5 213.426 1296.85 102.65L1483.15 550.79H1923.74" stroke="url(#paint14_linear_14_306)"/>
<path d="M0.261169 540.65H382.943C419.029 366.093 542.561 57.7663 748.001 220.909C953.44 384.053 1199.5 203.286 1296.85 92.5098L1483.15 540.65H1923.74" stroke="url(#paint15_linear_14_306)"/>
<path d="M0.261169 530.51H382.943C419.029 355.953 542.561 47.6261 748.001 210.769C953.44 373.912 1199.5 193.146 1296.85 82.3696L1483.15 530.51H1923.74" stroke="url(#paint16_linear_14_306)"/>
<path d="M0.261169 520.369H382.943C419.029 345.813 542.561 37.486 748.001 200.629C953.44 363.772 1199.5 183.006 1296.85 72.2295L1483.15 520.369H1923.74" stroke="url(#paint17_linear_14_306)"/>
<path d="M0.261169 510.229H382.943C419.029 335.673 542.561 27.3459 748.001 190.489C953.44 353.632 1199.5 172.866 1296.85 62.0894L1483.15 510.229H1923.74" stroke="url(#paint18_linear_14_306)"/>
<path d="M0.261169 500.089H382.943C419.029 325.533 542.561 17.2057 748.001 180.349C953.44 343.492 1199.5 162.725 1296.85 51.9492L1483.15 500.089H1923.74" stroke="url(#paint19_linear_14_306)"/>
<path d="M0.261169 489.949H382.943C419.029 315.393 542.561 7.0656 748.001 170.209C953.44 333.352 1199.5 152.585 1296.85 41.8091L1483.15 489.949H1923.74" stroke="url(#paint20_linear_14_306)"/>
<path d="M0.261169 479.809H382.943C419.029 305.252 542.561 -3.07454 748.001 160.069C953.44 323.212 1199.5 142.445 1296.85 31.6689L1483.15 479.809H1923.74" stroke="url(#paint21_linear_14_306)"/>
<path d="M0.261169 469.669H382.943C419.029 295.112 542.561 -13.2147 748.001 149.928C953.44 313.072 1199.5 132.305 1296.85 21.5288L1483.15 469.669H1923.74" stroke="url(#paint22_linear_14_306)"/>
<path d="M0.261169 459.529H382.943C419.029 284.972 542.561 -23.3548 748.001 139.788C953.44 302.931 1199.5 122.165 1296.85 11.3887L1483.15 459.529H1923.74" stroke="url(#paint23_linear_14_306)"/>
<path d="M0.261169 449.388H382.943C419.029 274.832 542.561 -33.4949 748.001 129.648C953.44 292.791 1199.5 112.025 1296.85 1.24854L1483.15 449.388H1923.74" stroke="url(#paint24_linear_14_306)"/>
</g>
<defs>
<linearGradient id="paint0_linear_14_306" x1="962" y1="244.612" x2="962" y2="692.752" gradientUnits="userSpaceOnUse">
<stop stop-color="white"/>
<stop offset="1" stop-color="white" stop-opacity="0"/>
</linearGradient>
<linearGradient id="paint1_linear_14_306" x1="962" y1="234.472" x2="962" y2="682.612" gradientUnits="userSpaceOnUse">
<stop stop-color="white"/>
<stop offset="1" stop-color="white" stop-opacity="0"/>
</linearGradient>
<linearGradient id="paint2_linear_14_306" x1="962" y1="224.332" x2="962" y2="672.471" gradientUnits="userSpaceOnUse">
<stop stop-color="white"/>
<stop offset="1" stop-color="white" stop-opacity="0"/>
</linearGradient>
<linearGradient id="paint3_linear_14_306" x1="962" y1="214.191" x2="962" y2="662.331" gradientUnits="userSpaceOnUse">
<stop stop-color="white"/>
<stop offset="1" stop-color="white" stop-opacity="0"/>
</linearGradient>
<linearGradient id="paint4_linear_14_306" x1="962" y1="204.051" x2="962" y2="652.191" gradientUnits="userSpaceOnUse">
<stop stop-color="white"/>
<stop offset="1" stop-color="white" stop-opacity="0"/>
</linearGradient>
<linearGradient id="paint5_linear_14_306" x1="962" y1="193.911" x2="962" y2="642.051" gradientUnits="userSpaceOnUse">
<stop stop-color="white"/>
<stop offset="1" stop-color="white" stop-opacity="0"/>
</linearGradient>
<linearGradient id="paint6_linear_14_306" x1="962" y1="183.771" x2="962" y2="631.911" gradientUnits="userSpaceOnUse">
<stop stop-color="white"/>
<stop offset="1" stop-color="white" stop-opacity="0"/>
</linearGradient>
<linearGradient id="paint7_linear_14_306" x1="962" y1="173.631" x2="962" y2="621.771" gradientUnits="userSpaceOnUse">
<stop stop-color="white"/>
<stop offset="1" stop-color="white" stop-opacity="0"/>
</linearGradient>
<linearGradient id="paint8_linear_14_306" x1="962" y1="163.491" x2="962" y2="611.631" gradientUnits="userSpaceOnUse">
<stop stop-color="white"/>
<stop offset="1" stop-color="white" stop-opacity="0"/>
</linearGradient>
<linearGradient id="paint9_linear_14_306" x1="962" y1="153.351" x2="962" y2="601.491" gradientUnits="userSpaceOnUse">
<stop stop-color="white"/>
<stop offset="1" stop-color="white" stop-opacity="0"/>
</linearGradient>
<linearGradient id="paint10_linear_14_306" x1="962" y1="143.21" x2="962" y2="591.35" gradientUnits="userSpaceOnUse">
<stop stop-color="white"/>
<stop offset="1" stop-color="white" stop-opacity="0"/>
</linearGradient>
<linearGradient id="paint11_linear_14_306" x1="962" y1="133.07" x2="962" y2="581.21" gradientUnits="userSpaceOnUse">
<stop stop-color="white"/>
<stop offset="1" stop-color="white" stop-opacity="0"/>
</linearGradient>
<linearGradient id="paint12_linear_14_306" x1="962" y1="122.93" x2="962" y2="571.07" gradientUnits="userSpaceOnUse">
<stop stop-color="white"/>
<stop offset="1" stop-color="white" stop-opacity="0"/>
</linearGradient>
<linearGradient id="paint13_linear_14_306" x1="962" y1="112.79" x2="962" y2="560.93" gradientUnits="userSpaceOnUse">
<stop stop-color="white"/>
<stop offset="1" stop-color="white" stop-opacity="0"/>
</linearGradient>
<linearGradient id="paint14_linear_14_306" x1="962" y1="102.65" x2="962" y2="550.79" gradientUnits="userSpaceOnUse">
<stop stop-color="white"/>
<stop offset="1" stop-color="white" stop-opacity="0"/>
</linearGradient>
<linearGradient id="paint15_linear_14_306" x1="962" y1="92.5098" x2="962" y2="540.65" gradientUnits="userSpaceOnUse">
<stop stop-color="white"/>
<stop offset="1" stop-color="white" stop-opacity="0"/>
</linearGradient>
<linearGradient id="paint16_linear_14_306" x1="962" y1="82.3696" x2="962" y2="530.51" gradientUnits="userSpaceOnUse">
<stop stop-color="white"/>
<stop offset="1" stop-color="white" stop-opacity="0"/>
</linearGradient>
<linearGradient id="paint17_linear_14_306" x1="962" y1="72.2295" x2="962" y2="520.369" gradientUnits="userSpaceOnUse">
<stop stop-color="white"/>
<stop offset="1" stop-color="white" stop-opacity="0"/>
</linearGradient>
<linearGradient id="paint18_linear_14_306" x1="962" y1="62.0894" x2="962" y2="510.229" gradientUnits="userSpaceOnUse">
<stop stop-color="white"/>
<stop offset="1" stop-color="white" stop-opacity="0"/>
</linearGradient>
<linearGradient id="paint19_linear_14_306" x1="962" y1="51.9492" x2="962" y2="500.089" gradientUnits="userSpaceOnUse">
<stop stop-color="white"/>
<stop offset="1" stop-color="white" stop-opacity="0"/>
</linearGradient>
<linearGradient id="paint20_linear_14_306" x1="962" y1="41.8091" x2="962" y2="489.949" gradientUnits="userSpaceOnUse">
<stop stop-color="white"/>
<stop offset="1" stop-color="white" stop-opacity="0"/>
</linearGradient>
<linearGradient id="paint21_linear_14_306" x1="962" y1="31.6689" x2="962" y2="479.809" gradientUnits="userSpaceOnUse">
<stop stop-color="white"/>
<stop offset="1" stop-color="white" stop-opacity="0"/>
</linearGradient>
<linearGradient id="paint22_linear_14_306" x1="962" y1="21.5288" x2="962" y2="469.669" gradientUnits="userSpaceOnUse">
<stop stop-color="white"/>
<stop offset="1" stop-color="white" stop-opacity="0"/>
</linearGradient>
<linearGradient id="paint23_linear_14_306" x1="962" y1="11.3887" x2="962" y2="459.529" gradientUnits="userSpaceOnUse">
<stop stop-color="white"/>
<stop offset="1" stop-color="white" stop-opacity="0"/>
</linearGradient>
<linearGradient id="paint24_linear_14_306" x1="962" y1="1.24854" x2="962" y2="449.388" gradientUnits="userSpaceOnUse">
<stop stop-color="white"/>
<stop offset="1" stop-color="white" stop-opacity="0"/>
</linearGradient>
</defs>
</svg>
