<svg width="17" height="17" viewBox="0 0 17 17" fill="none" xmlns="http://www.w3.org/2000/svg">
<path d="M3.80527 17H0.280804V5.64997H3.80527V17ZM2.04114 4.10172C0.914129 4.10172 0 3.16822 0 2.04118C8.06665e-09 1.49983 0.215048 0.980645 0.597836 0.597849C0.980623 0.215053 1.49979 0 2.04114 0C2.58248 0 3.10165 0.215053 3.48444 0.597849C3.86723 0.980645 4.08228 1.49983 4.08228 2.04118C4.08228 3.16822 3.16777 4.10172 2.04114 4.10172ZM16.9962 17H13.4793V11.4749C13.4793 10.1581 13.4528 8.46945 11.6469 8.46945C9.81446 8.46945 9.53366 9.90006 9.53366 11.38V17H6.01299V5.64997H9.39326V7.19822H9.44259C9.91313 6.30646 11.0625 5.36537 12.7773 5.36537C16.3443 5.36537 17 7.7143 17 10.7653V17H16.9962Z" fill="white"/>
</svg>
