<svg width="222" height="223" viewBox="0 0 222 223" fill="none" xmlns="http://www.w3.org/2000/svg">
<ellipse cx="110.67" cy="111.169" rx="110.669" ry="111.169" fill="url(#paint0_linear_12_298)"/>
<path d="M131.448 109.439C132.777 110.21 132.777 112.129 131.448 112.899L101.792 130.098C100.459 130.872 98.7891 129.91 98.7891 128.368L98.7891 93.9705C98.7891 92.4292 100.459 91.4671 101.792 92.2404L131.448 109.439Z" fill="white"/>
<path d="M108.648 109.837H103.088L112.312 115.929V112.883H118.251L108.648 106.409V109.837Z" fill="#FF7A03"/>
<path d="M92.5116 189.226C90.6944 188.799 89.3842 187.93 88.5808 186.618C87.7744 185.319 87.6011 183.682 88.0608 181.708L89.8438 174.053L91.7907 174.511L90.9151 178.27L98.7808 180.119L99.6564 176.359L101.564 176.808L99.7815 184.463C99.3218 186.437 98.4437 187.826 97.1474 188.631C95.848 189.449 94.3028 189.647 92.5116 189.226ZM90.5204 179.965L89.967 182.341C89.6433 183.731 89.7488 184.865 90.2834 185.744C90.8049 186.62 91.6823 187.203 92.9153 187.492C94.1484 187.782 95.1986 187.652 96.0658 187.103C96.9201 186.55 97.509 185.579 97.8327 184.19L98.3861 181.814L90.5204 179.965Z" fill="white"/>
<path d="M70.3155 172.25C69.734 171.637 69.3966 170.952 69.3033 170.196C69.2031 169.452 69.3848 168.69 69.8484 167.911C70.4687 166.868 71.3403 166.303 72.4631 166.215C73.5745 166.12 74.879 166.522 76.3766 167.421L82.1039 170.859L74.946 182.891L69.5617 179.659C68.1898 178.835 67.296 177.926 66.8802 176.93C66.4529 175.927 66.529 174.938 67.1084 173.964C67.4834 173.334 67.9558 172.879 68.5257 172.599C69.0842 172.312 69.6808 172.196 70.3155 172.25ZM74.0595 180.47L76.35 176.619L72.8348 174.509C71.9545 173.981 71.1846 173.736 70.525 173.776C69.8472 173.82 69.3208 174.157 68.9459 174.787C68.571 175.417 68.5281 176.037 68.8174 176.646C69.0884 177.26 69.664 177.831 70.5443 178.359L74.0595 180.47ZM75.6169 168.855C74.6452 168.271 73.8181 167.993 73.1357 168.018C72.4532 168.044 71.9075 168.401 71.4985 169.088C70.7009 170.429 71.2795 171.686 73.2343 172.86L77.1783 175.227L79.5608 171.222L75.6169 168.855Z" fill="white"/>
<path d="M61.4374 154.471C62.3627 155.54 62.9653 156.704 63.2455 157.964C63.5155 159.233 63.4528 160.475 63.0572 161.688C62.653 162.891 61.9438 163.936 60.9298 164.822C59.9158 165.708 58.7876 166.269 57.5454 166.505C56.2944 166.73 55.067 166.617 53.8632 166.163C52.6494 165.719 51.5798 164.963 50.6546 163.894C49.7381 162.836 49.1447 161.672 48.8747 160.403C48.5946 159.143 48.6566 157.911 49.0609 156.708C49.4552 155.514 50.1643 154.469 51.1884 153.574C52.2125 152.679 53.3456 152.114 54.5879 151.878C55.8201 151.651 57.0431 151.76 58.2569 152.204C59.4607 152.657 60.5209 153.413 61.4374 154.471ZM60.0971 155.643C59.425 154.867 58.647 154.325 57.7631 154.017C56.8705 153.699 55.9653 153.631 55.0473 153.814C54.1106 153.995 53.2607 154.419 52.4977 155.086C51.7347 155.753 51.2041 156.535 50.9059 157.433C50.5889 158.33 50.5253 159.244 50.7151 160.176C50.8962 161.098 51.3228 161.947 51.9949 162.723C52.667 163.499 53.4537 164.051 54.3551 164.379C55.2476 164.697 56.1623 164.765 57.099 164.584C58.0169 164.402 58.8574 163.977 59.6205 163.31C60.3835 162.643 60.9235 161.862 61.2404 160.965C61.5386 160.067 61.5928 159.152 61.403 158.22C61.2045 157.278 60.7692 156.419 60.0971 155.643Z" fill="white"/>
<path d="M35.2566 137.093L48.1437 131.623L48.8882 133.392L47.0656 134.166C48.7459 134.481 49.9919 135.604 50.8036 137.533C51.4498 139.07 51.49 140.472 50.9243 141.74C50.3534 142.997 49.2027 143.992 47.4721 144.727L39.8319 147.97L39.0564 146.126L46.6414 142.907C47.881 142.38 48.6969 141.672 49.0889 140.781C49.4809 139.891 49.452 138.911 49.0022 137.842C48.5162 136.686 47.7874 135.917 46.8158 135.532C45.8441 135.148 44.6832 135.242 43.3331 135.816L36.0243 138.918L35.2566 137.093Z" fill="white"/>
<path d="M34.1741 115.287C33.569 116.73 33.2861 118.229 33.3254 119.782L45.5952 118.291L45.8319 120.257L33.5621 121.748C33.8943 123.279 34.5254 124.673 35.4557 125.93L33.971 126.816C32.6985 125.17 31.9283 123.236 31.6605 121.012C31.3895 118.761 31.6767 116.685 32.5219 114.782L34.1741 115.287Z" fill="white"/>
<path d="M38.8067 76.656C39.4132 75.161 40.3187 74.1702 41.5233 73.6836C42.7279 73.1971 44.1508 73.2897 45.792 73.9615L53.8435 77.2575L53.0991 79.0923L45.1032 75.819C43.9679 75.3543 42.99 75.2998 42.1695 75.6554C41.3366 76.006 40.7222 76.6693 40.3262 77.6454C39.8901 78.7203 39.8527 79.6991 40.2141 80.5818C40.5681 81.4471 41.3744 82.1373 42.633 82.6526L50.3699 85.8197L49.6255 87.6545L41.6296 84.3812C40.482 83.9115 39.503 83.8421 38.6924 84.173C37.8869 84.4916 37.2862 85.1389 36.8902 86.115C36.4491 87.2022 36.4067 88.1934 36.763 89.0884C37.1244 89.9711 37.9282 90.6675 39.1745 91.1777L46.9113 94.3449L46.1595 96.1982L33.203 90.8943L33.9248 89.1152L35.8128 89.888C35.3265 89.2423 35.0448 88.5003 34.9676 87.6619C34.8955 86.8112 35.0474 85.9225 35.4233 84.9958C35.8143 84.0321 36.3414 83.2826 37.0046 82.7473C37.6728 82.1996 38.4139 81.8979 39.2279 81.8421C38.7023 81.1515 38.4048 80.3598 38.3354 79.467C38.2586 78.5567 38.4157 77.6197 38.8067 76.656Z" fill="white"/>
<path d="M63.7055 65.7855C62.7246 66.803 61.6211 67.5059 60.3949 67.8942C59.1591 68.2732 57.9226 68.3167 56.6855 68.0247C55.4576 67.7231 54.361 67.1028 53.3957 66.1639C52.4304 65.2249 51.778 64.1438 51.4384 62.9207C51.1081 61.688 51.1165 60.4498 51.4634 59.2063C51.8008 57.9534 52.4599 56.8182 53.4408 55.8006C54.4124 54.7927 55.5161 54.0993 56.7519 53.7203C57.9781 53.332 59.2052 53.2886 60.4331 53.5902C61.6514 53.8825 62.748 54.5028 63.7229 55.4511C64.6977 56.3994 65.3549 57.4851 65.6945 58.7082C66.0244 59.922 66.0207 61.1553 65.6834 62.4082C65.3365 63.6518 64.6772 64.7776 63.7055 65.7855ZM62.4296 64.5444C63.1421 63.8052 63.6134 62.9802 63.8434 62.0692C64.0826 61.1487 64.0726 60.2369 63.8135 59.3338C63.5541 58.4118 63.0612 57.5975 62.3348 56.891C61.6084 56.1844 60.7872 55.7203 59.871 55.4988C58.9546 55.2584 58.0423 55.273 57.134 55.5428C56.235 55.803 55.4293 56.3026 54.7167 57.0418C54.0042 57.7809 53.5237 58.6156 53.2752 59.5457C53.036 60.4662 53.0461 61.3875 53.3055 62.3095C53.5646 63.2126 54.0574 64.0174 54.7837 64.724C55.5101 65.4305 56.3315 65.904 57.248 66.1445C58.1641 66.366 59.0763 66.3419 59.9845 66.0721C60.902 65.7928 61.7171 65.2835 62.4296 64.5444Z" fill="white"/>
<path d="M83.1955 51.5224L78.5107 49.1633C78.1947 49.364 77.9428 49.515 77.755 49.6162L74.7096 51.2584L76.7173 55.0156L74.9569 55.9648L68.3587 43.6173L73.1645 41.0259C74.7606 40.1652 76.2206 39.8703 77.5444 40.1411C78.8683 40.4118 79.8884 41.2175 80.6048 42.5581C81.1138 43.5106 81.3127 44.4486 81.2015 45.372C81.0902 46.2955 80.6821 47.1442 79.977 47.9182L85.1144 50.4878L83.1955 51.5224ZM76.901 48.1454C78.0159 47.5442 78.7379 46.8443 79.0671 46.0458C79.3962 45.2472 79.322 44.4011 78.8444 43.5073C78.3668 42.6136 77.709 42.0898 76.8708 41.9358C76.0264 41.7701 75.0467 41.9878 73.9318 42.589L70.9391 44.2027L73.9083 49.7591L76.901 48.1454Z" fill="white"/>
<path d="M102.4 44.3541C101.92 44.9769 101.236 45.5352 100.346 46.0288C99.4542 46.5094 98.4479 46.8715 97.3275 47.1152C96.0767 47.3873 94.9797 47.4553 94.0366 47.3193C93.0906 47.1703 92.3329 46.8507 91.7635 46.3605C91.1941 45.8703 90.8265 45.2407 90.6608 44.4717C90.4922 43.6897 90.569 42.9703 90.8912 42.3135C91.2235 41.6408 91.7213 41.1027 92.3845 40.6992C91.7551 40.5632 91.2213 40.2699 90.7832 39.8194C90.3423 39.3559 90.0474 38.7787 89.8985 38.0879C89.744 37.371 89.8068 36.6819 90.0871 36.0206C90.3804 35.3564 90.9075 34.7642 91.6682 34.244C92.4262 33.7107 93.4045 33.3137 94.6032 33.053C95.45 32.8688 96.2905 32.7815 97.1246 32.7911C97.9717 32.7979 98.7249 32.9069 99.3843 33.1183L99.1547 34.8056C97.8472 34.4351 96.4769 34.4056 95.0438 34.7173C93.8582 34.9752 92.999 35.3872 92.4664 35.9534C91.9309 36.5065 91.7362 37.1219 91.8823 37.7997C92.0284 38.4775 92.3818 38.9464 92.9425 39.2065C93.5033 39.4666 94.2331 39.4989 95.1321 39.3033L98.6498 38.5382L99.0123 40.2196L95.4164 41.0017C94.3871 41.2256 93.6186 41.5838 93.111 42.0762C92.6034 42.5687 92.4282 43.1799 92.5856 43.9098C92.7457 44.6527 93.203 45.1605 93.9573 45.4331C94.7117 45.7056 95.7468 45.6988 97.0627 45.4126C97.9748 45.2142 98.8145 44.9019 99.5819 44.4758C100.36 44.0337 100.968 43.533 101.406 42.9737L102.4 44.3541Z" fill="white"/>
<path d="M129.229 33.6205C131.044 34.0576 132.35 34.9342 133.146 36.2506C133.945 37.5539 134.109 39.1912 133.639 41.1626L131.814 48.8078L129.87 48.3396L130.766 44.585L122.911 42.6933L122.014 46.4479L120.109 45.989L121.934 38.3437C122.404 36.3724 123.29 34.9879 124.59 34.1903C125.894 33.3797 127.44 33.1897 129.229 33.6205ZM131.17 42.8926L131.736 40.5192C132.067 39.1315 131.968 37.9967 131.438 37.1149C130.922 36.2361 130.048 35.6485 128.816 35.3519C127.585 35.0554 126.534 35.1794 125.664 35.7242C124.806 36.272 124.212 37.2398 123.881 38.6275L123.314 41.0008L131.17 42.8926Z" fill="white"/>
<path d="M151.332 50.7178C151.91 51.3344 152.244 52.0209 152.333 52.7772C152.429 53.5221 152.244 54.2829 151.776 55.0596C151.15 56.0989 150.275 56.6595 149.152 56.7414C148.04 56.8301 146.738 56.4209 145.245 55.5138L139.537 52.0443L146.76 40.0517L152.127 43.3134C153.494 44.1444 154.383 45.0591 154.793 46.0574C155.215 47.0627 155.133 48.0508 154.549 49.0216C154.17 49.6498 153.695 50.1023 153.124 50.3791C152.564 50.6628 151.967 50.7757 151.332 50.7178ZM147.633 42.4782L145.322 46.3158L148.825 48.4453C149.703 48.9785 150.471 49.2272 151.131 49.1913C151.809 49.1509 152.337 48.8166 152.716 48.1884C153.094 47.5602 153.14 46.9408 152.854 46.3302C152.587 45.715 152.014 45.1408 151.137 44.6076L147.633 42.4782ZM146.013 54.0845C146.981 54.6731 147.807 54.9564 148.489 54.9344C149.172 54.9123 149.719 54.5587 150.132 53.8734C150.937 52.5371 150.365 51.2768 148.417 50.0927L144.486 47.7035L142.082 51.6954L146.013 54.0845Z" fill="white"/>
<path d="M160.113 68.5455C159.194 67.4721 158.598 66.3045 158.324 65.0427C158.061 63.7721 158.131 62.5313 158.533 61.3202C158.944 60.1192 159.659 59.0784 160.678 58.1978C161.697 57.3172 162.828 56.7625 164.071 56.5336C165.323 56.3149 166.55 56.4353 167.751 56.895C168.963 57.346 170.028 58.1082 170.948 59.1816C171.858 60.2449 172.445 61.4118 172.708 62.6823C172.982 63.9441 172.913 65.1755 172.502 66.3765C172.101 67.5688 171.386 68.6096 170.357 69.4989C169.328 70.3882 168.192 70.9473 166.949 71.1762C165.715 71.3963 164.493 71.2809 163.281 70.8299C162.08 70.3702 161.024 69.6088 160.113 68.5455ZM161.46 67.3815C162.128 68.1613 162.903 68.7074 163.785 69.02C164.676 69.3427 165.581 69.4153 166.5 69.2379C167.438 69.0619 168.29 68.6426 169.056 67.9799C169.823 67.3173 170.358 66.5378 170.661 65.6414C170.983 64.7464 171.051 63.8324 170.867 62.8994C170.691 61.9766 170.269 61.1253 169.601 60.3455C168.933 59.5658 168.149 59.0095 167.25 58.6767C166.359 58.354 165.445 58.2807 164.507 58.4567C163.588 58.6341 162.745 59.0541 161.979 59.7167C161.212 60.3794 160.668 61.1582 160.346 62.0532C160.043 62.9495 159.984 63.8642 160.168 64.7972C160.362 65.7404 160.792 66.6018 161.46 67.3815Z" fill="white"/>
<path d="M186.2 86.0669L173.283 91.4662L172.548 89.6924L174.375 88.9288C172.696 88.6044 171.456 87.4752 170.655 85.5413C170.017 84.0015 169.985 82.5989 170.557 81.3335C171.135 80.0804 172.291 79.0914 174.026 78.3663L181.684 75.1653L182.449 77.013L174.847 80.1909C173.604 80.7103 172.784 81.4142 172.388 82.3026C171.991 83.1911 172.014 84.1711 172.458 85.2428C172.938 86.4007 173.662 87.1745 174.632 87.564C175.602 87.9535 176.763 87.8655 178.116 87.2998L185.442 84.2377L186.2 86.0669Z" fill="white"/>
<path d="M187.164 107.879C187.777 106.439 188.068 104.942 188.037 103.388L175.759 104.812L175.533 102.845L187.811 101.421C187.487 99.8884 186.863 98.4909 185.94 97.2288L187.429 96.3514C188.693 98.0036 189.453 99.9423 189.708 102.168C189.967 104.42 189.669 106.494 188.813 108.392L187.164 107.879Z" fill="white"/>
<path d="M182.321 146.484C181.706 147.975 180.795 148.961 179.588 149.441C178.381 149.921 176.958 149.821 175.321 149.14L167.288 145.8L168.042 143.969L176.02 147.286C177.153 147.757 178.13 147.817 178.953 147.466C179.787 147.12 180.405 146.46 180.807 145.486C181.249 144.414 181.291 143.435 180.935 142.55C180.586 141.683 179.783 140.988 178.527 140.466L170.808 137.257L171.562 135.426L179.54 138.743C180.685 139.219 181.664 139.294 182.476 138.967C183.283 138.653 183.888 138.009 184.289 137.035C184.736 135.95 184.784 134.96 184.432 134.063C184.076 133.178 183.276 132.477 182.032 131.96L174.313 128.751L175.075 126.901L188.002 132.276L187.27 134.051L185.387 133.268C185.87 133.917 186.147 134.66 186.22 135.499C186.287 136.35 186.131 137.238 185.75 138.163C185.353 139.124 184.822 139.871 184.156 140.402C183.485 140.946 182.742 141.244 181.928 141.295C182.45 141.989 182.743 142.782 182.807 143.675C182.879 144.586 182.717 145.522 182.321 146.484Z" fill="white"/>
<path d="M157.363 157.218C158.35 156.206 159.457 155.509 160.686 155.127C161.923 154.755 163.16 154.718 164.396 155.017C165.622 155.325 166.715 155.951 167.675 156.896C168.635 157.84 169.282 158.925 169.615 160.149C169.938 161.384 169.923 162.622 169.569 163.864C169.225 165.115 168.56 166.246 167.573 167.259C166.596 168.261 165.489 168.949 164.251 169.321C163.023 169.702 161.795 169.739 160.569 169.431C159.352 169.132 158.259 168.505 157.29 167.552C156.32 166.598 155.669 165.509 155.336 164.284C155.012 163.068 155.023 161.835 155.367 160.584C155.721 159.342 156.386 158.22 157.363 157.218ZM158.633 158.466C157.916 159.201 157.44 160.023 157.205 160.933C156.961 161.852 156.966 162.764 157.22 163.669C157.475 164.592 157.963 165.409 158.685 166.12C159.408 166.83 160.227 167.299 161.142 167.525C162.057 167.771 162.969 167.761 163.879 167.496C164.779 167.241 165.588 166.746 166.304 166.01C167.021 165.275 167.506 164.443 167.759 163.514C168.004 162.595 167.999 161.674 167.744 160.751C167.49 159.846 167.002 159.039 166.279 158.328C165.557 157.617 164.738 157.139 163.823 156.894C162.908 156.667 161.996 156.687 161.086 156.951C160.167 157.226 159.349 157.731 158.633 158.466Z" fill="white"/>
<path d="M137.796 171.374L142.468 173.758C142.785 173.559 143.038 173.41 143.226 173.31L146.28 171.684L144.293 167.916L146.059 166.976L152.589 179.36L147.77 181.925C146.169 182.777 144.707 183.064 143.385 182.786C142.062 182.508 141.047 181.696 140.338 180.352C139.834 179.397 139.64 178.458 139.756 177.535C139.873 176.612 140.285 175.766 140.995 174.995L135.871 172.398L137.796 171.374ZM144.072 174.785C142.954 175.38 142.228 176.076 141.894 176.873C141.561 177.669 141.63 178.516 142.103 179.412C142.576 180.309 143.231 180.836 144.068 180.995C144.912 181.165 145.893 180.953 147.011 180.358L150.012 178.76L147.073 173.188L144.072 174.785Z" fill="white"/>
<path d="M118.553 178.436C119.036 177.816 119.723 177.261 120.615 176.773C121.51 176.297 122.518 175.94 123.64 175.703C124.892 175.438 125.99 175.376 126.932 175.517C127.877 175.671 128.633 175.995 129.2 176.488C129.767 176.981 130.131 177.613 130.292 178.383C130.457 179.166 130.376 179.885 130.05 180.54C129.714 181.211 129.214 181.746 128.548 182.146C129.177 182.285 129.709 182.581 130.145 183.034C130.583 183.5 130.875 184.079 131.02 184.771C131.171 185.488 131.104 186.177 130.82 186.837C130.523 187.499 129.993 188.089 129.229 188.605C128.468 189.134 127.488 189.526 126.288 189.78C125.44 189.959 124.599 190.042 123.765 190.028C122.918 190.016 122.165 189.903 121.507 189.688L121.746 188.002C123.051 188.38 124.422 188.417 125.856 188.113C127.043 187.862 127.905 187.454 128.44 186.891C128.979 186.341 129.177 185.727 129.035 185.048C128.892 184.369 128.541 183.899 127.982 183.635C127.423 183.372 126.693 183.336 125.793 183.527L122.271 184.272L121.918 182.589L125.518 181.827C126.548 181.608 127.319 181.254 127.829 180.765C128.339 180.275 128.518 179.665 128.365 178.934C128.209 178.19 127.754 177.68 127.001 177.403C126.248 177.127 125.213 177.128 123.896 177.407C122.983 177.6 122.141 177.908 121.371 178.33C120.591 178.768 119.98 179.265 119.539 179.822L118.553 178.436Z" fill="white"/>
<defs>
<linearGradient id="paint0_linear_12_298" x1="48.5194" y1="26.1439" x2="190.647" y2="207.249" gradientUnits="userSpaceOnUse">
<stop stop-color="#FFA104"/>
<stop offset="0.513487" stop-color="#FF7A03"/>
<stop offset="1" stop-color="#FFA104"/>
</linearGradient>
</defs>
</svg>
