<svg width="151" height="150" viewBox="0 0 151 150" fill="none" xmlns="http://www.w3.org/2000/svg">
<path d="M75.5 131.25C68.1131 131.25 60.7986 129.795 53.9741 126.968C47.1495 124.141 40.9485 119.998 35.7252 114.775C30.5019 109.551 26.3586 103.351 23.5318 96.5259C20.7049 89.7014 19.25 82.3869 19.25 75C19.25 67.6131 20.7049 60.2986 23.5318 53.4741C26.3586 46.6495 30.5019 40.4485 35.7252 35.2252C40.9485 30.0019 47.1495 25.8586 53.9741 23.0318C60.7986 20.2049 68.1131 18.75 75.5 18.75C90.4184 18.75 104.726 24.6763 115.275 35.2252C125.824 45.7742 131.75 60.0816 131.75 75C131.75 89.9184 125.824 104.226 115.275 114.775C104.726 125.324 90.4184 131.25 75.5 131.25Z" stroke="#513125" stroke-width="5" stroke-linecap="round" stroke-linejoin="round"/>
<path d="M63 62.5C59.875 56.25 47.375 56.25 44.25 62.5" stroke="#513125" stroke-width="5" stroke-linecap="round" stroke-linejoin="round"/>
<path d="M106.75 62.5C103.625 56.25 91.125 56.25 88 62.5" stroke="#513125" stroke-width="5" stroke-linecap="round" stroke-linejoin="round"/>
<path d="M91.125 93.75C89.0883 95.8287 86.6572 97.4802 83.9742 98.6076C81.2912 99.735 78.4102 100.316 75.5 100.316C72.5898 100.316 69.7088 99.735 67.0258 98.6076C64.3428 97.4802 61.9117 95.8287 59.875 93.75" stroke="#513125" stroke-width="5" stroke-linecap="round" stroke-linejoin="round"/>
</svg>
