<svg width="150" height="150" viewBox="0 0 150 150" fill="none" xmlns="http://www.w3.org/2000/svg">
<path d="M75 93.75C85.3553 93.75 93.75 85.3553 93.75 75C93.75 64.6447 85.3553 56.25 75 56.25C64.6447 56.25 56.25 64.6447 56.25 75C56.25 85.3553 64.6447 93.75 75 93.75Z" stroke="#513125" stroke-width="5" stroke-linecap="round" stroke-linejoin="round"/>
<path d="M75 12.5C79.9728 12.5 84.7419 14.4754 88.2583 17.9917C91.7746 21.5081 93.75 26.2772 93.75 31.25C93.75 34.7625 92.1312 40.2625 88.9 47.75L84.375 56.25L95.375 44.4187C98.4937 40.6687 101.138 38.1562 103.313 36.8875C105.431 35.6574 107.772 34.8592 110.201 34.5388C112.63 34.2184 115.098 34.3823 117.463 35.0209C119.828 35.6595 122.043 36.7602 123.98 38.2595C125.917 39.7588 127.539 41.627 128.75 43.7562C131.222 48.0609 131.893 53.168 130.617 57.9651C129.341 62.7623 126.221 66.8611 121.937 69.3687C119.6 70.725 115.75 71.8437 110.4 72.7125L93.75 75L108.75 77.0375C114.969 77.9438 119.362 79.1438 121.937 80.6375C126.221 83.1452 129.341 87.2439 130.617 92.0411C131.893 96.8383 131.222 101.945 128.75 106.25C127.538 108.379 125.917 110.246 123.979 111.745C122.041 113.244 119.826 114.344 117.461 114.982C115.096 115.62 112.628 115.783 110.2 115.462C107.771 115.141 105.431 114.343 103.313 113.112C101.138 111.85 98.4937 109.337 95.375 105.581L84.375 93.75L88.9 102.25C92.125 109.744 93.75 115.244 93.75 118.75C93.75 123.723 91.7746 128.492 88.2583 132.008C84.7419 135.525 79.9728 137.5 75 137.5C70.0272 137.5 65.258 135.525 61.7417 132.008C58.2254 128.492 56.25 123.723 56.25 118.75C56.25 115.238 57.8687 109.738 61.1 102.25L65.625 93.75L54.625 105.581C51.5062 109.337 48.8625 111.85 46.6875 113.112C44.5694 114.343 42.2285 115.141 39.8001 115.462C37.3717 115.783 34.9038 115.62 32.5388 114.982C30.1738 114.344 27.9586 113.244 26.021 111.745C24.0835 110.246 22.4619 108.379 21.25 106.25C18.778 101.945 18.1069 96.8383 19.3828 92.0411C20.6588 87.2439 23.7785 83.1452 28.0625 80.6375C30.4 79.275 34.25 78.1625 39.6 77.2875L56.25 75L41.25 72.9688C35.0312 72.0625 30.6375 70.8625 28.0625 69.3687C23.7768 66.861 20.6559 62.7612 19.3799 57.9625C18.1038 53.1638 18.776 48.0552 21.25 43.75C22.4614 41.6208 24.0826 39.7526 26.0199 38.2533C27.9572 36.754 30.1723 35.6532 32.5373 35.0146C34.9024 34.376 37.3705 34.2122 39.7991 34.5325C42.2278 34.8529 44.569 35.6512 46.6875 36.8813C48.8625 38.15 51.5062 40.6562 54.625 44.4125L65.625 56.25C59.375 41.925 56.25 33.5938 56.25 31.25C56.25 26.2772 58.2254 21.5081 61.7417 17.9917C65.258 14.4754 70.0272 12.5 75 12.5V12.5Z" stroke="#513125" stroke-width="5" stroke-linecap="round" stroke-linejoin="round"/>
</svg>
