<svg width="36" height="30" viewBox="0 0 36 30" fill="none" xmlns="http://www.w3.org/2000/svg">
<path d="M34.6667 1.68336C33 2.50002 31.3667 2.83169 29.6667 3.33336C27.7983 1.22502 25.0283 1.10836 22.3667 2.10502C19.705 3.10169 17.9617 5.53836 18 8.33336V10C12.5917 10.1384 7.77501 7.67502 4.66668 3.33336C4.66668 3.33336 -2.30332 15.7217 11.3333 21.6667C8.21334 23.745 5.10168 25.1467 1.33334 25C6.84668 28.005 12.855 29.0384 18.0567 27.5284C24.0233 25.795 28.9267 21.3234 30.8083 14.625C31.3697 12.5878 31.6484 10.4831 31.6367 8.37002C31.6333 7.95502 34.1533 3.75002 34.6667 1.68169V1.68336Z" stroke="#513125" stroke-width="2" stroke-linecap="round" stroke-linejoin="round"/>
</svg>
